# xmcd CD database file
#
# Track frame offsets:
#	150
#	25157
#	51199
#	69246
#	109692
#	130930
#	155968
#	177250
#	194432
#	214546
#	231289
#	256339
#	270327
#	296713
#
# Disc length: 4136 seconds
#
# Revision: 0
# Processed by: cddbd v1.5.2PL0 Copyright (c) Steve Scherf et al.
# Submitted via: CDex 1.51
#
DISCID=cc10260e
DTITLE=Super Chikan - Chikan Supe
DYEAR=2005
DGENRE=Blues
TTITLE0=Poor Broke Boy
TTITLE1=Reliable Sources
TTITLE2=Wavy Thoughts
TTITLE3=Just Ain't the Same No Mo'
TTITLE4=Old Field Song
TTITLE5=Ground Zero
TTITLE6=Clarksdale
TTITLE7=Don't Play
TTITLE8=Special Glow
TTITLE9=Robert Johnson
TTITLE10=A Tribute to the King
TTITLE11=Groundhog Blues
TTITLE12=All My Yesterdays
TTITLE13=Heartache
EXTD=YEAR: 2005
EXTT0=
EXTT1=
EXTT2=
EXTT3=
EXTT4=
EXTT5=
EXTT6=
EXTT7=
EXTT8=
EXTT9=
EXTT10=
EXTT11=
EXTT12=
EXTT13=
PLAYORDER=
